<svg xmlns="http://www.w3.org/2000/svg" viewBox="0 0 512 512" role="img" aria-label="顺路吃">
  <rect width="512" height="512" rx="112" fill="#137f7b"/>
  <path d="M130 154c0-28 23-51 51-51h150c28 0 51 23 51 51v82c0 70-57 127-127 127s-125-57-125-127v-82z" fill="#fff"/>
  <path d="M184 162h144v70c0 40-32 72-72 72s-72-32-72-72v-70z" fill="#df5b4f"/>
  <path d="M120 386h272c15 0 28 13 28 28s-13 28-28 28H120c-15 0-28-13-28-28s13-28 28-28z" fill="#fff"/>
  <path d="M164 95c-6-17 3-36 20-42 17-6 36 3 42 20l18 52h-70l-10-30zM348 95c6-17-3-36-20-42-17-6-36 3-42 20l-18 52h70l10-30z" fill="#fff"/>
</svg>
